<svg className="mySvg" width="5118" height="1306" viewBox="0 0 5118 1306" fill="none" xmlns="http://www.w3.org/2000/svg" id="hero-4__svg" class="c-PJLV c-PJLV-ihBzhgJ-css"><path d="M2098.64 1114.05L1831 1154L54.5902 1196.23C24.7893 1196.93 1 1221.3 1 1251.11C1 1281.42 25.577 1306 55.8945 1306H4512.85C4846.51 1306 5117 1035.51 5117 701.848C5117 332.725 4788.9 49.8914 4423.81 104.295L3685.47 214.315C3538.97 236.146 3417.78 339.663 3373.3 480.945L3363.98 510.545C3288.12 751.537 3078.84 926.264 2828.17 957.879C2769.67 965.258 2712.44 980.607 2658.1 1003.5L2590.35 1032.03C2477.59 1079.53 2356.47 1104 2234.11 1104C2188.77 1104 2143.48 1107.36 2098.64 1114.05Z" fill="#f6f6f6"></path><path id="hero-4__path" d="M1 1197.5L1831 1154L2098.64 1114.05C2143.48 1107.36 2188.77 1104 2234.11 1104V1104C2356.47 1104 2477.59 1079.53 2590.35 1032.03L2658.1 1003.5C2712.44 980.607 2769.67 965.258 2828.17 957.879V957.879C3078.84 926.264 3288.12 751.537 3363.98 510.545L3373.3 480.946C3417.78 339.663 3538.97 236.146 3685.47 214.315L5117 1"></path></svg>