<?xml version="1.0" standalone="no"?>
<!DOCTYPE svg PUBLIC "-//W3C//DTD SVG 20010904//EN"
 "http://www.w3.org/TR/2001/REC-SVG-20010904/DTD/svg10.dtd">
<svg version="1.0" xmlns="http://www.w3.org/2000/svg"
 width="300.000000pt" height="300.000000pt" viewBox="0 0 300.000000 300.000000"
 preserveAspectRatio="xMidYMid meet">

<g transform="translate(0.000000,300.000000) scale(0.100000,-0.100000)"
fill="#000000" stroke="none">
<path d="M560 2243 c-33 -12 -40 -36 -40 -144 0 -135 3 -139 132 -139 l88 0 0
35 0 35 -70 0 c-56 0 -70 3 -70 15 0 12 13 15 56 15 l55 0 -3 38 -3 37 -52 3
c-38 2 -53 7 -53 18 0 11 16 14 70 14 l70 0 0 40 0 40 -82 -1 c-46 0 -90 -3
-98 -6z"/>
<path d="M777 2244 c-4 -4 -7 -70 -7 -146 l0 -138 108 0 c152 0 152 0 152 144
0 93 -3 116 -17 127 -18 15 -222 26 -236 13z m173 -145 l0 -70 -47 3 -48 3 -3
68 -3 67 51 0 50 0 0 -71z"/>
<path d="M1070 2106 l0 -146 40 0 41 0 -3 143 -3 142 -37 3 -38 3 0 -145z"/>
<path d="M1170 2210 l0 -40 45 0 45 0 0 -105 0 -105 40 0 40 0 0 105 0 105 50
0 50 0 0 40 0 40 -135 0 -135 0 0 -40z"/>
<path d="M1486 2229 c-26 -20 -26 -22 -26 -145 l0 -124 40 0 c39 0 40 1 40 35
l0 35 50 0 50 0 0 -35 c0 -34 1 -35 40 -35 l40 0 0 120 c0 115 -1 122 -25 145
-21 22 -33 25 -103 25 -65 0 -84 -4 -106 -21z m154 -89 c0 -29 -1 -30 -50 -30
-49 0 -50 1 -50 30 0 29 1 30 50 30 49 0 50 -1 50 -30z"/>
<path d="M1750 2106 l0 -146 113 0 c96 0 116 3 129 18 23 25 31 74 17 108 -6
16 -11 49 -10 74 3 76 -9 84 -138 88 l-111 4 0 -146z m170 49 c0 -11 -12 -15
-45 -15 -33 0 -45 4 -45 15 0 11 12 15 45 15 33 0 45 -4 45 -15z m10 -111 c0
-12 -10 -14 -47 -12 -66 4 -70 28 -4 28 39 0 51 -4 51 -16z"/>
<path d="M2040 2105 l0 -145 110 0 110 0 0 35 0 34 -67 3 -68 3 -3 108 -3 107
-39 0 -40 0 0 -145z"/>
<path d="M2305 2225 c-23 -22 -25 -32 -25 -118 0 -80 3 -98 21 -121 19 -25 25
-26 115 -26 l94 0 0 35 0 34 -72 3 c-46 2 -73 7 -76 16 -3 9 12 12 52 12 l56
0 0 40 0 40 -55 0 c-42 0 -55 3 -55 15 0 12 15 15 75 15 l75 0 0 40 0 40 -90
0 c-83 0 -93 -2 -115 -25z"/>
<path d="M670 1715 l0 -145 110 0 c147 0 150 3 150 143 0 56 -4 107 -8 113
-16 25 -56 34 -151 34 l-101 0 0 -145z m180 -5 l0 -70 -50 0 -50 0 0 70 0 70
50 0 50 0 0 -70z"/>
<path d="M1003 1849 c-36 -13 -43 -42 -43 -163 l0 -116 40 0 40 0 0 105 0 105
30 0 30 0 0 -105 0 -105 40 0 40 0 0 105 0 105 30 0 30 0 0 -105 0 -105 40 0
40 0 0 124 c0 121 -1 125 -25 144 -23 18 -41 20 -148 20 -67 0 -132 -4 -144
-9z"/>
<path d="M1485 1848 c-32 -18 -35 -28 -35 -140 0 -134 4 -138 132 -138 l88 0
0 35 0 35 -70 0 -70 0 0 70 0 70 70 0 70 0 0 40 0 40 -82 0 c-46 0 -92 -6
-103 -12z"/>
<path d="M1750 1853 c-45 -17 -50 -33 -50 -140 0 -137 5 -143 130 -143 124 0
130 6 130 139 0 134 -9 145 -117 148 -43 1 -85 0 -93 -4z m128 -140 l-3 -68
-45 0 -45 0 -3 68 -3 67 51 0 51 0 -3 -67z"/>
<path d="M1990 1715 l0 -145 40 0 40 0 0 105 0 105 30 0 30 0 0 -105 0 -105
40 0 40 0 0 105 0 105 30 0 30 0 0 -105 0 -105 46 0 46 0 -3 126 c-5 170 2
164 -210 164 l-159 0 0 -145z"/>
<path d="M1350 1605 c0 -33 2 -35 35 -35 33 0 35 2 35 35 0 33 -2 35 -35 35
-33 0 -35 -2 -35 -35z"/>
<path d="M680 1263 c-68 -35 -141 -130 -127 -168 7 -16 37 -10 37 9 0 6 9 22
19 35 l19 25 64 -65 c164 -167 402 -272 681 -300 383 -39 754 79 973 308 l51
54 19 -24 c11 -14 24 -32 29 -41 7 -10 15 -13 24 -7 35 22 -48 139 -125 176
-48 22 -79 17 -79 -14 0 -20 8 -27 43 -38 23 -8 42 -19 42 -24 0 -16 -111 -96
-199 -142 -187 -99 -376 -141 -636 -141 -258 0 -444 41 -633 139 -87 45 -202
127 -202 144 0 5 19 16 43 24 34 11 42 18 42 38 0 31 -36 36 -85 12z"/>
</g>
</svg>
