<svg xmlns="http://www.w3.org/2000/svg" fill="#fff" viewBox="0 0 50 50" width="50px" height="50px"><path d="M 5 8 A 1.0001 1.0001 0 0 0 4 9 C 4 14.511003 8.4889971 19 14 19 C 19.511003 19 24 14.511003 24 9 A 1.0001 1.0001 0 0 0 23 8 L 5 8 z M 27 8 A 1.0001 1.0001 0 0 0 26 9 L 26 31 A 1.0001 1.0001 0 0 0 27.773438 31.632812 L 45.773438 9.6328125 A 1.0001 1.0001 0 0 0 45 8 L 27 8 z M 6.2011719 10 L 21.798828 10 C 21.288438 13.932174 18.075035 17 14 17 C 9.9249646 17 6.711562 13.932174 6.2011719 10 z M 28 10 L 42.890625 10 L 28 28.199219 L 28 10 z M 22.970703 17 A 1.0001 1.0001 0 0 0 22.226562 17.367188 L 4.2265625 39.367188 A 1.0001 1.0001 0 0 0 5 41 L 23 41 A 1.0001 1.0001 0 0 0 24 40 L 24 18 A 1.0001 1.0001 0 0 0 22.970703 17 z M 22 20.800781 L 22 39 L 7.109375 39 L 22 20.800781 z M 36 30 C 30.488997 30 26 34.488997 26 40 A 1.0001 1.0001 0 0 0 27 41 L 45 41 A 1.0001 1.0001 0 0 0 46 40 C 46 34.488997 41.511003 30 36 30 z M 36 32 C 40.075035 32 43.288438 35.067826 43.798828 39 L 28.201172 39 C 28.711562 35.067826 31.924965 32 36 32 z"></path></svg>