<?xml version="1.0" encoding="UTF-8"?>
<svg xmlns="http://www.w3.org/2000/svg" xmlns:xlink="http://www.w3.org/1999/xlink" viewBox="0 0 50 50" width="50px" height="50px">
<g id="surface54192962">
<path style=" stroke:none;fill-rule:nonzero;fill:rgb(100%,100%,100%);fill-opacity:1;" d="M 25.582031 27.292969 L 30.703125 27.292969 C 32.160156 27.292969 33.082031 26.492188 33.082031 25.207031 C 33.082031 23.992188 32.160156 23.117188 30.703125 23.117188 L 25.582031 23.117188 C 25.410156 23.117188 25.265625 23.261719 25.265625 23.40625 L 25.265625 27.003906 C 25.289062 27.171875 25.410156 27.292969 25.582031 27.292969 Z M 25.582031 27.292969 "/>
<path style=" stroke:none;fill-rule:nonzero;fill:rgb(100%,100%,100%);fill-opacity:1;" d="M 25.582031 35.582031 L 30.871094 35.582031 C 32.496094 35.582031 33.46875 34.753906 33.46875 33.296875 C 33.46875 32.035156 32.546875 31.011719 30.871094 31.011719 L 25.582031 31.011719 C 25.410156 31.011719 25.265625 31.160156 25.265625 31.304688 L 25.265625 35.265625 C 25.289062 35.460938 25.410156 35.582031 25.582031 35.582031 Z M 25.582031 35.582031 "/>
<path style=" stroke:none;fill-rule:nonzero;fill:rgb(100%,100%,100%);fill-opacity:1;" d="M 44.320312 4.257812 L 29.171875 19.371094 L 31.648438 19.371094 C 35.507812 19.371094 37.789062 21.800781 37.789062 24.449219 C 37.789062 26.539062 36.382812 28.070312 34.878906 28.753906 C 34.636719 28.847656 34.636719 29.191406 34.902344 29.285156 C 36.648438 29.964844 37.886719 31.789062 37.886719 33.929688 C 37.886719 36.941406 35.871094 39.347656 31.964844 39.347656 L 21.234375 39.347656 C 21.066406 39.347656 20.917969 39.199219 20.917969 39.054688 L 20.917969 27.609375 L 4.289062 44.183594 C 4.074219 44.402344 4.21875 44.792969 4.535156 44.792969 L 44.515625 44.792969 C 44.660156 44.792969 44.78125 44.667969 44.78125 44.523438 L 44.78125 4.476562 C 44.855469 4.207031 44.515625 4.0625 44.320312 4.257812 Z M 44.320312 4.257812 "/>
</g>
</svg>
