<?xml version="1.0" encoding="UTF-8"?>
<svg xmlns="http://www.w3.org/2000/svg" xmlns:xlink="http://www.w3.org/1999/xlink" viewBox="0 0 50 50" width="50px" height="50px">
<g id="surface54194168">
<path style=" stroke:none;fill-rule:nonzero;fill:rgb(100%,100%,100%);fill-opacity:1;" d="M 30.621094 17.1875 C 26.351562 21.078125 22.425781 24.914062 18.320312 28.980469 C 16.417969 30.871094 14.410156 32.847656 11.828125 33.566406 C 9.839844 34.121094 7.632812 33.835938 5.847656 32.792969 C 4.066406 31.753906 2.734375 29.96875 2.238281 27.964844 C 1.527344 25.089844 2.539062 22.011719 4.246094 19.589844 C 5.953125 17.167969 8.292969 15.285156 10.585938 13.40625 C 12.875 11.527344 15.386719 9.441406 16.984375 6.945312 C 17.699219 7.558594 18.539062 8.121094 19.074219 8.898438 C 16.882812 11.617188 14.378906 14.085938 11.621094 16.230469 C 11.011719 16.707031 10.386719 17.167969 9.875 17.746094 C 9.085938 18.632812 8.601562 19.753906 7.84375 20.671875 C 7.21875 21.429688 6.402344 22.0625 6.027344 22.972656 C 5.757812 23.628906 5.753906 24.359375 5.785156 25.070312 C 5.832031 26.183594 5.980469 27.339844 6.605469 28.265625 C 7.761719 29.984375 10.257812 30.34375 12.210938 29.640625 C 14.160156 28.9375 15.691406 27.425781 17.152344 25.957031 C 20.773438 22.324219 24.296875 19.027344 27.917969 15.394531 C 28.019531 15.292969 28.128906 15.183594 28.273438 15.148438 C 28.460938 15.097656 28.65625 15.1875 28.828125 15.28125 C 29.652344 15.746094 30.160156 16.359375 30.621094 17.1875 Z M 30.621094 17.1875 "/>
<path style=" stroke:none;fill-rule:nonzero;fill:rgb(100%,100%,100%);fill-opacity:1;" d="M 36.929688 10.882812 C 35.9375 9.605469 33.957031 8.726562 32.414062 8.238281 C 31.226562 7.859375 29.980469 7.574219 28.746094 7.714844 C 27.097656 7.898438 25.628906 8.808594 24.285156 9.777344 C 22.882812 10.785156 21.550781 11.878906 20.289062 13.058594 C 19.191406 14.085938 18.152344 15.167969 17.117188 16.253906 C 14.695312 18.785156 12.304688 21.5 9.886719 24.03125 C 10.085938 24.496094 10.324219 25.164062 10.699219 25.507812 C 11.070312 25.851562 11.652344 26.019531 12.09375 25.769531 C 12.261719 25.671875 12.394531 25.523438 12.523438 25.378906 C 16.394531 21.050781 20.59375 17.015625 25.070312 13.316406 C 26.046875 12.507812 27.066406 11.699219 28.265625 11.285156 C 30.558594 10.484375 33.332031 11.382812 34.722656 13.375 C 35.441406 12.523438 36.210938 11.730469 36.929688 10.882812 Z M 36.929688 10.882812 "/>
<path style=" stroke:none;fill-rule:nonzero;fill:rgb(100%,100%,100%);fill-opacity:1;" d="M 40.632812 26.804688 C 37.230469 30.210938 33.769531 33.757812 30.363281 37.164062 C 28.949219 38.582031 27.519531 40.011719 25.851562 41.121094 C 24.179688 42.226562 22.230469 43.007812 20.226562 42.976562 C 18.894531 42.960938 17.585938 42.582031 16.378906 42.023438 C 15.421875 41.578125 14.519531 41.304688 13.699219 40.640625 C 13.523438 40.5 13.339844 40.328125 13.332031 40.105469 C 13.324219 39.941406 13.414062 39.789062 13.507812 39.652344 C 13.925781 39.050781 14.605469 38.488281 15.226562 38.09375 C 16.6875 39.5625 19.035156 39.816406 21.089844 39.5625 C 23.144531 39.308594 25.046875 38.285156 26.621094 36.9375 C 27.644531 36.058594 28.542969 35.042969 29.4375 34.035156 C 31.828125 31.335938 34.21875 28.632812 36.609375 25.933594 C 36.957031 25.542969 37.332031 25.132812 37.835938 24.976562 C 39.0625 25.519531 39.933594 25.847656 40.632812 26.804688 Z M 40.632812 26.804688 "/>
<path style=" stroke:none;fill-rule:nonzero;fill:rgb(100%,100%,100%);fill-opacity:1;" d="M 19.015625 33.839844 C 23.34375 28.800781 28.023438 23.953125 33.066406 19.632812 C 34.507812 18.398438 36.097656 17.144531 37.988281 16.988281 C 40 16.816406 41.871094 17.933594 43.578125 19.015625 C 44.386719 19.527344 45.210938 20.054688 45.847656 20.773438 C 47.539062 22.675781 47.613281 25.605469 46.695312 27.980469 C 45.78125 30.355469 44.042969 32.300781 42.339844 34.191406 C 41.625 34.988281 40.910156 35.777344 40.195312 36.574219 C 37.960938 39.050781 35.304688 41.371094 32.976562 43.761719 C 32.304688 43.113281 31.445312 42.308594 30.773438 41.660156 C 35.097656 38.199219 38.488281 33.949219 42.023438 29.683594 C 43.292969 28.152344 44.636719 26.355469 44.339844 24.386719 C 43.988281 22.039062 41.285156 20.621094 38.925781 20.902344 C 36.570312 21.179688 34.550781 22.695312 32.800781 24.296875 C 31.535156 25.453125 30.335938 26.683594 29.140625 27.914062 C 26.714844 30.410156 24.285156 32.90625 21.859375 35.402344 C 21.644531 35.625 21.382812 35.863281 21.074219 35.839844 C 20.90625 35.824219 20.757812 35.734375 20.617188 35.636719 C 19.988281 35.199219 19.417969 34.492188 19.015625 33.839844 Z M 19.015625 33.839844 "/>
<path style=" stroke:none;fill-rule:nonzero;fill:rgb(100%,100%,100%);fill-opacity:1;" d="M 30.988281 17.554688 C 31.128906 17.429688 31.164062 17.28125 31.140625 17.144531 C 31.140625 17.132812 31.136719 17.125 31.136719 17.117188 C 31.125 17.070312 31.113281 17.027344 31.089844 16.988281 C 31.082031 16.964844 31.082031 16.945312 31.070312 16.925781 C 30.535156 15.992188 29.023438 13.929688 27.757812 14.84375 C 27.085938 15.332031 26.515625 16.058594 25.925781 16.640625 C 25.152344 17.402344 24.371094 18.164062 23.59375 18.921875 C 22.164062 20.3125 20.730469 21.695312 19.304688 23.09375 C 17.898438 24.472656 16.550781 25.929688 15.070312 27.230469 C 13.824219 28.328125 12.332031 29.332031 10.628906 29.445312 C 9.152344 29.546875 7.554688 29.03125 6.839844 27.644531 C 6.433594 26.859375 6.34375 25.941406 6.304688 25.070312 C 6.257812 23.964844 6.40625 23.0625 7.144531 22.207031 C 7.617188 21.660156 8.140625 21.167969 8.566406 20.582031 C 9.148438 19.777344 9.582031 18.863281 10.242188 18.117188 C 10.957031 17.304688 11.886719 16.699219 12.71875 16.023438 C 13.503906 15.386719 14.261719 14.722656 15.003906 14.035156 C 16.59375 12.554688 18.074219 10.960938 19.441406 9.269531 C 19.574219 9.101562 19.664062 8.835938 19.523438 8.636719 C 18.921875 7.8125 18.125 7.230469 17.351562 6.582031 C 17.089844 6.359375 16.730469 6.386719 16.535156 6.6875 C 14.125 10.375 10.285156 12.777344 7.082031 15.695312 C 4.050781 18.457031 1.273438 22.164062 1.5 26.480469 C 1.707031 30.480469 4.789062 33.804688 8.761719 34.300781 C 13.128906 34.847656 16.289062 31.730469 19.140625 28.90625 C 23.027344 25.054688 26.949219 21.242188 30.988281 17.554688 Z M 10.960938 33.230469 C 6.984375 33.902344 3.121094 31.042969 2.59375 27.050781 C 2.046875 22.894531 4.769531 19.242188 7.648438 16.585938 C 10.820312 13.65625 14.5625 11.257812 17.082031 7.695312 C 17.542969 8.066406 18.003906 8.445312 18.390625 8.894531 C 17.234375 10.296875 16.007812 11.640625 14.6875 12.898438 C 13.25 14.269531 11.660156 15.429688 10.164062 16.730469 C 8.753906 17.964844 8.019531 19.746094 6.742188 21.105469 C 6.199219 21.679688 5.6875 22.289062 5.445312 23.054688 C 5.160156 23.957031 5.222656 24.980469 5.324219 25.910156 C 5.496094 27.46875 6.074219 28.9375 7.464844 29.777344 C 8.730469 30.542969 10.332031 30.660156 11.746094 30.320312 C 13.429688 29.917969 14.875 28.832031 16.128906 27.679688 C 17.628906 26.304688 19.03125 24.816406 20.488281 23.390625 C 22.183594 21.738281 23.890625 20.09375 25.582031 18.4375 C 26.457031 17.582031 27.316406 16.710938 28.191406 15.855469 C 28.417969 15.632812 28.464844 15.667969 28.734375 15.835938 C 28.941406 15.960938 29.128906 16.105469 29.300781 16.273438 C 29.558594 16.519531 29.761719 16.804688 29.949219 17.101562 C 26.730469 20.050781 23.582031 23.070312 20.46875 26.128906 C 18.972656 27.601562 17.519531 29.140625 15.945312 30.53125 C 14.515625 31.789062 12.875 32.902344 10.960938 33.230469 Z M 10.960938 33.230469 "/>
<path style=" stroke:none;fill-rule:nonzero;fill:rgb(100%,100%,100%);fill-opacity:1;" d="M 15.367188 17.347656 C 13.414062 19.445312 11.5 21.585938 9.519531 23.660156 C 9.402344 23.78125 9.316406 24 9.386719 24.167969 C 9.714844 24.949219 10.015625 25.824219 10.835938 26.214844 C 11.746094 26.648438 12.4375 26.246094 13.054688 25.566406 C 14.648438 23.800781 16.289062 22.074219 17.984375 20.40625 C 19.652344 18.765625 21.367188 17.175781 23.132812 15.640625 C 24.003906 14.878906 24.886719 14.125 25.785156 13.398438 C 26.671875 12.679688 27.636719 11.976562 28.75 11.675781 C 30.761719 11.132812 33.050781 11.949219 34.273438 13.632812 C 34.453125 13.882812 34.851562 14.015625 35.089844 13.738281 C 35.808594 12.898438 36.574219 12.09375 37.296875 11.25 C 37.421875 11.105469 37.441406 10.941406 37.410156 10.792969 C 37.398438 10.699219 37.367188 10.601562 37.296875 10.515625 C 36.132812 9.078125 34.269531 8.285156 32.550781 7.734375 C 30.304688 7.019531 28.164062 6.960938 26.035156 8.054688 C 24.027344 9.085938 22.199219 10.632812 20.527344 12.132812 C 18.710938 13.765625 17.035156 15.5625 15.367188 17.347656 Z M 24.824219 10.027344 C 25.679688 9.429688 26.582031 8.855469 27.574219 8.515625 C 28.722656 8.125 29.898438 8.136719 31.070312 8.40625 C 32.863281 8.8125 34.902344 9.539062 36.226562 10.894531 C 35.730469 11.457031 35.230469 12.011719 34.738281 12.574219 C 33.742188 11.472656 32.398438 10.75 30.910156 10.539062 C 28.996094 10.265625 27.289062 10.957031 25.773438 12.09375 C 22.140625 14.824219 18.796875 18.054688 15.625 21.296875 C 14.695312 22.25 13.78125 23.21875 12.886719 24.199219 C 12.523438 24.597656 12.003906 25.492188 11.390625 25.316406 C 10.910156 25.179688 10.675781 24.613281 10.492188 24.144531 C 13.597656 20.875 16.542969 17.457031 19.757812 14.292969 C 21.332031 12.742188 23.015625 11.300781 24.824219 10.027344 Z M 24.824219 10.027344 "/>
<path style=" stroke:none;fill-rule:nonzero;fill:rgb(100%,100%,100%);fill-opacity:1;" d="M 34.269531 33.972656 C 36.511719 31.703125 38.746094 29.429688 41 27.171875 C 41.019531 27.15625 41.023438 27.136719 41.039062 27.117188 C 41.191406 26.976562 41.253906 26.761719 41.082031 26.542969 C 40.550781 25.847656 39.914062 25.367188 39.128906 24.988281 C 38.777344 24.820312 38.355469 24.550781 37.972656 24.476562 C 37.574219 24.402344 37.164062 24.699219 36.871094 24.9375 C 35.992188 25.648438 35.285156 26.648438 34.535156 27.496094 C 33.738281 28.394531 32.941406 29.292969 32.144531 30.195312 C 30.542969 32 29 33.882812 27.296875 35.59375 C 25.789062 37.105469 24 38.378906 21.894531 38.886719 C 19.828125 39.382812 17.207031 39.273438 15.597656 37.726562 C 15.4375 37.570312 15.160156 37.515625 14.964844 37.644531 C 14.203125 38.140625 12.949219 38.976562 12.828125 39.964844 C 12.699219 40.996094 14.167969 41.613281 14.917969 41.949219 C 17.21875 42.980469 19.457031 43.828125 22.019531 43.328125 C 24.457031 42.851562 26.574219 41.410156 28.398438 39.78125 C 30.449219 37.953125 32.339844 35.925781 34.269531 33.972656 Z M 18.507812 42.230469 C 17.292969 41.933594 16.082031 41.390625 14.964844 40.824219 C 14.710938 40.695312 14.457031 40.558594 14.226562 40.390625 C 13.925781 40.175781 13.800781 40.121094 14.042969 39.808594 C 14.363281 39.390625 14.773438 39.058594 15.199219 38.757812 C 17.679688 40.785156 21.578125 40.445312 24.296875 39.109375 C 25.992188 38.277344 27.414062 37.019531 28.691406 35.644531 C 30.148438 34.074219 31.542969 32.441406 32.964844 30.835938 C 33.789062 29.902344 34.613281 28.972656 35.441406 28.039062 C 35.867188 27.558594 36.292969 27.078125 36.722656 26.59375 C 37.050781 26.222656 37.390625 25.777344 37.847656 25.550781 C 38.59375 25.871094 39.339844 26.21875 39.910156 26.792969 C 36.625 30.089844 33.371094 33.417969 30.082031 36.710938 C 27.019531 39.777344 23.246094 43.386719 18.507812 42.230469 Z M 18.507812 42.230469 "/>
<path style=" stroke:none;fill-rule:nonzero;fill:rgb(100%,100%,100%);fill-opacity:1;" d="M 47.738281 23.910156 C 47.503906 22.019531 46.5625 20.496094 45.039062 19.367188 C 43.445312 18.1875 41.527344 16.945312 39.554688 16.566406 C 37.546875 16.183594 35.722656 16.921875 34.128906 18.109375 C 32.417969 19.378906 30.847656 20.859375 29.292969 22.308594 C 25.527344 25.816406 22 29.570312 18.648438 33.472656 C 18.636719 33.484375 18.632812 33.503906 18.621094 33.519531 C 18.480469 33.664062 18.425781 33.878906 18.566406 34.101562 C 19.273438 35.21875 20.691406 37.160156 22.09375 35.902344 C 23.582031 34.566406 24.917969 33.003906 26.3125 31.570312 C 27.71875 30.121094 29.121094 28.667969 30.535156 27.230469 C 31.867188 25.875 33.210938 24.492188 34.730469 23.347656 C 36.125 22.292969 37.8125 21.363281 39.609375 21.386719 C 40.976562 21.410156 42.453125 22.007812 43.273438 23.140625 C 44.320312 24.582031 43.765625 26.3125 42.886719 27.683594 C 41.886719 29.242188 40.578125 30.632812 39.394531 32.050781 C 36.636719 35.355469 33.769531 38.585938 30.40625 41.292969 C 30.191406 41.46875 30.21875 41.851562 30.40625 42.03125 C 31.136719 42.734375 31.878906 43.425781 32.605469 44.128906 C 32.808594 44.324219 33.144531 44.335938 33.34375 44.128906 C 34.957031 42.476562 36.660156 40.914062 38.300781 39.289062 C 39.914062 37.695312 41.417969 35.996094 42.933594 34.308594 C 45.523438 31.425781 48.253906 28.046875 47.738281 23.910156 Z M 42.496094 33.238281 C 40.941406 34.980469 39.394531 36.734375 37.738281 38.382812 C 36.164062 39.949219 34.535156 41.460938 32.972656 43.035156 C 32.496094 42.582031 32.023438 42.132812 31.546875 41.679688 C 34.457031 39.269531 37.015625 36.480469 39.449219 33.597656 C 40.683594 32.132812 41.949219 30.675781 43.113281 29.15625 C 44.15625 27.792969 45.09375 26.167969 44.863281 24.386719 C 44.476562 21.433594 41.136719 20 38.472656 20.445312 C 34.785156 21.058594 31.933594 24.304688 29.457031 26.839844 C 27.804688 28.535156 26.160156 30.230469 24.511719 31.925781 C 23.652344 32.808594 22.792969 33.691406 21.9375 34.574219 C 21.757812 34.757812 21.574219 35.03125 21.355469 35.164062 C 21.019531 35.378906 20.820312 35.15625 20.570312 34.929688 C 20.222656 34.621094 19.941406 34.257812 19.679688 33.878906 C 22.316406 30.824219 25.054688 27.863281 27.9375 25.042969 C 29.429688 23.585938 30.960938 22.164062 32.53125 20.785156 C 33.917969 19.570312 35.382812 18.152344 37.207031 17.652344 C 39.234375 17.097656 41.160156 18.125 42.835938 19.164062 C 44.480469 20.183594 46.023438 21.222656 46.546875 23.191406 C 47.582031 27.070312 44.914062 30.527344 42.496094 33.238281 Z M 42.496094 33.238281 "/>
</g>
</svg>
