<?xml version="1.0" encoding="UTF-8"?>
<svg xmlns="http://www.w3.org/2000/svg" xmlns:xlink="http://www.w3.org/1999/xlink" viewBox="0 0 50 50" width="50px" height="50px">
<g id="surface54359950">
<path style=" stroke:none;fill-rule:nonzero;fill:rgb(100%,100%,100%);fill-opacity:1;" d="M 25.519531 47.042969 L 7.292969 36.269531 L 7.292969 14.769531 L 25.519531 4 L 43.75 14.769531 L 43.75 36.269531 Z M 9.375 35.082031 L 25.519531 44.625 L 41.667969 35.082031 L 41.667969 15.957031 L 25.519531 6.417969 L 9.375 15.957031 Z M 9.375 35.082031 "/>
<path style=" stroke:none;fill-rule:nonzero;fill:rgb(100%,100%,100%);fill-opacity:1;" d="M 29.167969 5.730469 C 29.167969 7.742188 27.535156 9.375 25.519531 9.375 C 23.507812 9.375 21.875 7.742188 21.875 5.730469 C 21.875 3.714844 23.507812 2.082031 25.519531 2.082031 C 27.535156 2.082031 29.167969 3.714844 29.167969 5.730469 Z M 29.167969 5.730469 "/>
<path style=" stroke:none;fill-rule:nonzero;fill:rgb(100%,100%,100%);fill-opacity:1;" d="M 29.167969 45.3125 C 29.167969 47.324219 27.535156 48.957031 25.519531 48.957031 C 23.507812 48.957031 21.875 47.324219 21.875 45.3125 C 21.875 43.300781 23.507812 41.667969 25.519531 41.667969 C 27.535156 41.667969 29.167969 43.300781 29.167969 45.3125 Z M 29.167969 45.3125 "/>
<path style=" stroke:none;fill-rule:nonzero;fill:rgb(100%,100%,100%);fill-opacity:1;" d="M 12.5 34.894531 C 12.5 36.910156 10.867188 38.542969 8.855469 38.542969 C 6.839844 38.542969 5.207031 36.910156 5.207031 34.894531 C 5.207031 32.882812 6.839844 31.25 8.855469 31.25 C 10.867188 31.25 12.5 32.882812 12.5 34.894531 Z M 12.5 34.894531 "/>
<path style=" stroke:none;fill-rule:nonzero;fill:rgb(100%,100%,100%);fill-opacity:1;" d="M 45.832031 34.894531 C 45.832031 36.910156 44.199219 38.542969 42.1875 38.542969 C 40.175781 38.542969 38.542969 36.910156 38.542969 34.894531 C 38.542969 32.882812 40.175781 31.25 42.1875 31.25 C 44.199219 31.25 45.832031 32.882812 45.832031 34.894531 Z M 45.832031 34.894531 "/>
<path style=" stroke:none;fill-rule:nonzero;fill:rgb(100%,100%,100%);fill-opacity:1;" d="M 12.5 16.144531 C 12.5 18.160156 10.867188 19.792969 8.855469 19.792969 C 6.839844 19.792969 5.207031 18.160156 5.207031 16.144531 C 5.207031 14.132812 6.839844 12.5 8.855469 12.5 C 10.867188 12.5 12.5 14.132812 12.5 16.144531 Z M 12.5 16.144531 "/>
<path style=" stroke:none;fill-rule:nonzero;fill:rgb(100%,100%,100%);fill-opacity:1;" d="M 45.832031 16.144531 C 45.832031 18.160156 44.199219 19.792969 42.1875 19.792969 C 40.175781 19.792969 38.542969 18.160156 38.542969 16.144531 C 38.542969 14.132812 40.175781 12.5 42.1875 12.5 C 44.199219 12.5 45.832031 14.132812 45.832031 16.144531 Z M 45.832031 16.144531 "/>
<path style=" stroke:none;fill-rule:nonzero;fill:rgb(100%,100%,100%);fill-opacity:1;" d="M 44.5 36.457031 L 6.542969 36.457031 L 25.519531 3.101562 Z M 10.125 34.375 L 40.917969 34.375 L 25.519531 7.316406 Z M 10.125 34.375 "/>
</g>
</svg>
