<?xml version="1.0" encoding="UTF-8"?>
<svg xmlns="http://www.w3.org/2000/svg" xmlns:xlink="http://www.w3.org/1999/xlink" viewBox="0 0 50 50" width="50px" height="50px">
<g id="surface53343921">
<path style=" stroke:none;fill-rule:nonzero;fill:rgb(100%,100%,100%);fill-opacity:1;" d="M 10.289062 14.078125 C 8.164062 14.078125 6.003906 14.90625 5.644531 15.359375 C 5.550781 15.546875 5.335938 17.0625 5.851562 17.0625 C 6.023438 17.0625 6.101562 17.09375 6.601562 16.859375 C 8.476562 16.125 9.664062 16.140625 9.835938 16.140625 C 11.945312 15.9375 13.164062 17.375 12.976562 19.234375 L 12.976562 20.328125 C 11.195312 19.90625 10.175781 19.890625 9.675781 19.890625 C 7.082031 19.734375 4.6875 21.101562 4.6875 24.109375 C 4.6875 27.40625 7.628906 28.109375 8.769531 28.0625 C 10.472656 28.078125 12.097656 27.3125 13.175781 25.984375 C 14.035156 27.90625 14.585938 27.78125 14.601562 27.78125 C 14.757812 27.78125 14.878906 27.71875 15.003906 27.640625 L 15.898438 27.015625 C 16.054688 26.921875 16.175781 26.765625 16.191406 26.578125 C 16.175781 26.125 15.363281 25.421875 15.425781 23.84375 L 15.425781 18.96875 C 15.519531 17.625 15.085938 16.3125 14.179688 15.296875 C 13.101562 14.390625 11.679688 13.953125 10.289062 14.078125 Z M 40.558594 14.078125 C 37.433594 14.078125 35.636719 16.03125 35.683594 18.015625 C 35.683594 20.734375 38.433594 21.59375 38.746094 21.6875 C 41.386719 22.515625 41.746094 22.546875 42.480469 23.171875 C 43.105469 23.8125 43.027344 25.0625 42.105469 25.609375 C 41.839844 25.765625 40.699219 26.453125 38.121094 25.921875 C 37.261719 25.75 36.808594 25.546875 36.105469 25.25 C 35.917969 25.1875 35.480469 25.078125 35.480469 25.65625 L 35.480469 26.421875 C 35.480469 26.78125 35.699219 27.109375 36.027344 27.265625 C 37.667969 28.09375 39.636719 28.125 40.058594 28.125 C 40.121094 28.125 43.710938 28.125 44.914062 25.703125 C 45.164062 25.203125 45.808594 23.375 44.605469 21.8125 C 43.605469 20.640625 42.746094 20.515625 40.183594 19.734375 C 39.964844 19.671875 38.074219 19.1875 38.089844 17.859375 C 37.996094 16.15625 40.308594 16.0625 40.792969 16.09375 C 42.746094 16.0625 43.714844 16.796875 44.246094 16.84375 C 44.480469 16.84375 44.589844 16.703125 44.589844 16.390625 L 44.589844 15.671875 C 44.605469 15.5 44.542969 15.328125 44.449219 15.1875 C 43.824219 14.375 41.433594 14.078125 40.558594 14.078125 Z M 16.839844 14.46875 C 16.667969 14.5 16.542969 14.671875 16.574219 14.84375 C 16.605469 15.046875 16.636719 15.25 16.714844 15.453125 L 20.214844 27 C 20.292969 27.375 20.539062 27.78125 21.085938 27.71875 L 22.371094 27.71875 C 23.152344 27.796875 23.261719 27.046875 23.277344 26.96875 L 25.574219 17.34375 L 27.902344 26.984375 C 27.917969 27.0625 28.027344 27.8125 28.792969 27.734375 L 30.089844 27.734375 C 30.652344 27.796875 30.917969 27.390625 30.996094 27.015625 C 34.933594 14.34375 34.667969 15.203125 34.699219 15.078125 C 34.761719 14.421875 34.386719 14.46875 34.324219 14.484375 L 32.929688 14.484375 C 32.226562 14.40625 32.089844 15.046875 32.058594 15.203125 L 29.464844 25.21875 L 27.121094 15.203125 C 27.011719 14.4375 26.386719 14.46875 26.230469 14.484375 L 25.027344 14.484375 C 24.339844 14.421875 24.167969 14.96875 24.121094 15.203125 L 21.792969 25.078125 L 19.292969 15.203125 C 19.230469 14.890625 19.027344 14.40625 18.417969 14.46875 Z M 10.191406 21.703125 C 11.316406 21.71875 12.289062 21.890625 12.960938 22.046875 C 12.960938 22.828125 12.988281 23.265625 12.816406 23.96875 C 12.597656 24.71875 11.632812 26.078125 9.351562 26.109375 C 8.039062 26.171875 7.179688 25.140625 7.257812 23.96875 C 7.179688 22.09375 9.113281 21.625 10.191406 21.703125 Z M 45.375 31.253906 C 43.917969 31.273438 42.195312 31.601562 40.890625 32.515625 C 40.488281 32.796875 40.558594 33.183594 41.007812 33.132812 C 42.476562 32.957031 45.746094 32.558594 46.328125 33.308594 C 46.914062 34.054688 45.679688 37.136719 45.136719 38.511719 C 44.964844 38.925781 45.324219 39.09375 45.699219 38.78125 C 48.144531 36.734375 48.777344 32.445312 48.277344 31.828125 C 48.027344 31.519531 46.835938 31.234375 45.375 31.253906 Z M 1.902344 32.816406 C 1.558594 32.863281 1.414062 33.292969 1.769531 33.636719 C 7.890625 39.378906 15.976562 42.1875 24.957031 42.1875 C 31.363281 42.1875 38.796875 40.097656 43.929688 36.160156 C 44.777344 35.503906 44.054688 34.523438 43.183594 34.914062 C 37.429688 37.453125 31.179688 38.675781 25.492188 38.675781 C 17.058594 38.675781 8.898438 36.914062 2.292969 32.917969 C 2.148438 32.828125 2.015625 32.800781 1.902344 32.816406 Z M 1.902344 32.816406 "/>
</g>
</svg>
