<svg xmlns="http://www.w3.org/2000/svg" xmlns:xlink="http://www.w3.org/1999/xlink" id="Layer_1" x="0px" y="0px" viewBox="0 0 45 45" style="enable-background:new 0 0 45 45;" xml:space="preserve"> <style type="text/css"> .st0{fill:#EFF5FF;} .st1{fill:#0084FF;} .st2{fill:none;stroke:#000000;stroke-width:2;stroke-linecap:round;} </style> <circle class="st0" cx="22.5" cy="22.5" r="22.5"></circle> <path class="st1" d="M13.6,13.6c-0.2,0-0.4,0.2-0.4,0.4v16.3c0,0.2,0.2,0.4,0.4,0.4H32c0.2,0,0.4-0.2,0.4-0.4V14 c0-0.2-0.2-0.4-0.4-0.4H13.6z M14,14.4h17.6v3.5H14V14.4z M16.7,15.8c-0.1,0-0.2,0-0.3,0.1c-0.1,0.1-0.1,0.2-0.1,0.3 c0,0.1,0,0.2,0.1,0.3c0.1,0.1,0.2,0.1,0.3,0.1c0.1,0,0.2,0,0.3-0.1c0.1-0.1,0.1-0.2,0.1-0.3c0-0.1,0-0.2-0.1-0.3 C16.9,15.8,16.8,15.8,16.7,15.8z M19.2,15.8c-0.1,0-0.2,0-0.3,0.1c-0.1,0.1-0.1,0.2-0.1,0.3c0,0.1,0,0.2,0.1,0.3 c0.1,0.1,0.2,0.1,0.3,0.1c0.1,0,0.2,0,0.3-0.1c0.1-0.1,0.1-0.2,0.1-0.3c0-0.1,0-0.2-0.1-0.3C19.4,15.8,19.3,15.8,19.2,15.8z M21.7,15.8c-0.1,0-0.2,0-0.3,0.1c-0.1,0.1-0.1,0.2-0.1,0.3c0,0.1,0,0.2,0.1,0.3l0,0c0.1,0.1,0.2,0.1,0.3,0.1c0.1,0,0.2,0,0.3-0.1 c0.1-0.1,0.1-0.2,0.1-0.3c0-0.1,0-0.2-0.1-0.3C21.9,15.8,21.8,15.8,21.7,15.8z M14,18.7h17.6v11.3H14V18.7z M23.7,22.1 c-0.2,0-0.3,0.1-0.4,0.2L21.5,26c-0.1,0.2,0,0.4,0.2,0.5c0.1,0,0.1,0,0.2,0c0.1,0,0.3-0.1,0.3-0.2l1.8-3.7c0.1-0.2,0-0.4-0.2-0.5 C23.8,22.1,23.8,22.1,23.7,22.1z M19.8,22.1c-0.1,0-0.2,0-0.3,0.1l-1.8,1.8c-0.1,0.1-0.1,0.2-0.1,0.3c0,0.1,0,0.2,0.1,0.3l1.8,1.8 c0.1,0.1,0.2,0.1,0.3,0.1s0.2,0,0.3-0.1c0.2-0.2,0.2-0.4,0-0.5l-1.5-1.5l1.6-1.5c0.2-0.2,0.2-0.4,0-0.5C20,22.2,20,22.1,19.8,22.1 L19.8,22.1z M25.7,22.1c-0.1,0-0.2,0-0.3,0.1c-0.2,0.2-0.2,0.4,0,0.5l1.5,1.5l-1.6,1.6c-0.2,0.2-0.2,0.4,0,0.5 c0.1,0.1,0.2,0.1,0.3,0.1c0.1,0,0.2,0,0.3-0.1l1.8-1.8c0.1-0.1,0.1-0.2,0.1-0.3c0-0.1,0-0.2-0.1-0.3L26,22.3 C25.9,22.2,25.9,22.1,25.7,22.1L25.7,22.1z"></path> <ellipse cx="16.7" cy="16.1" rx="0.7" ry="0.7"></ellipse> <ellipse cx="19.2" cy="16.1" rx="0.7" ry="0.7"></ellipse> <ellipse cx="21.7" cy="16.1" rx="0.7" ry="0.7"></ellipse> <path class="st2" d="M24.2,21.5l-2.7,5.4"></path> </svg>