<svg xmlns="http://www.w3.org/2000/svg" xmlns:xlink="http://www.w3.org/1999/xlink" id="Layer_1" x="0px" y="0px" viewBox="0 0 45 45" style="enable-background:new 0 0 45 45;" xml:space="preserve"> <style type="text/css"> .st0{fill:#EFF5FF;} .st1{clip-path:url(#SVGID_00000051343180810568422800000016421778056484927386_);} .st2{fill:none;stroke:#000000;stroke-linecap:round;} .st3{fill:#0084FF;} </style> <circle class="st0" cx="22.5" cy="22.5" r="22.5"></circle> <g> <defs> <rect id="SVGID_1_" x="11.9" y="10.3" width="20.8" height="24.2"></rect> </defs> <clipPath id="SVGID_00000018199719638640585130000016781991071931391674_"> <use xlink:href="#SVGID_1_" style="overflow:visible;"></use> </clipPath> <g style="clip-path:url(#SVGID_00000018199719638640585130000016781991071931391674_);"> <path d="M16.6,13.3l1-2c1.2-0.2,1.8-0.1,2.3,1V14l-2.9-0.2L16.6,13.3z"></path> <path d="M17.1,30.1v-0.7h2.8v0.7l-1.4,1.8L17.1,30.1z"></path> <path class="st2" d="M27.3,11.6v20.5"></path> <path class="st3" d="M16.3,30.4L16.3,30.4L16.3,30.4L18,33c0,0,0,0,0,0c0.1,0.1,0.3,0.2,0.4,0.2c0.2,0,0.3-0.1,0.4-0.2l0,0l0,0 l1.8-2.6l0,0l0,0c0,0,0,0,0,0c0-0.1,0.1-0.2,0.1-0.3V12.6c0-1.2-1-2.2-2.3-2.2l0,0c-1.2,0-2.3,1-2.3,2.2v17.5 C16.2,30.3,16.2,30.4,16.3,30.4C16.3,30.4,16.3,30.4,16.3,30.4z M17.1,28.5V14.7H18v13.8H17.1z M18.9,14.7h0.8v13.8h-0.8V14.7z M18.4,11.4c0.7,0,1.3,0.6,1.3,1.3v1.1h-2.6v-1.1C17.1,11.9,17.7,11.4,18.4,11.4z M19.7,30l-1.3,1.9L17.1,30v-0.6h2.6V30z"></path> <path class="st3" d="M28,10.4h-4.2c-0.1,0-0.3,0-0.3,0.1c-0.1,0.1-0.1,0.2-0.1,0.3v21.6c0,0.1,0,0.3,0.1,0.3 c0.1,0.1,0.2,0.1,0.3,0.1H28c0.1,0,0.3,0,0.3-0.1c0.1-0.1,0.1-0.2,0.1-0.3V10.9C28.4,10.7,28.2,10.4,28,10.4z M27.5,32h-3.3v-1.1 h1.9c0.1,0,0.3,0,0.3-0.1c0.1-0.1,0.1-0.2,0.1-0.3c0-0.1,0-0.3-0.1-0.3C26.3,30,26.2,30,26.1,30h-1.9v-1.3h1.3 c0.1,0,0.3,0,0.3-0.1c0.1-0.1,0.1-0.2,0.1-0.3c0-0.1,0-0.3-0.1-0.3c-0.1-0.1-0.2-0.1-0.3-0.1h-1.3v-1.3h1.3c0.1,0,0.3,0,0.3-0.1 c0.1-0.1,0.1-0.2,0.1-0.3c0-0.1,0-0.3-0.1-0.3c-0.1-0.1-0.2-0.1-0.3-0.1h-1.3v-1.2h1.9c0.1,0,0.3,0,0.3-0.1 c0.1-0.1,0.1-0.2,0.1-0.3c0-0.1,0-0.3-0.1-0.3c-0.1-0.1-0.2-0.1-0.3-0.1h-1.9v-1.3h1.3c0.1,0,0.3,0,0.3-0.1 c0.1-0.1,0.1-0.2,0.1-0.3c0-0.1,0-0.3-0.1-0.3c-0.1-0.1-0.2-0.1-0.3-0.1h-1.3V20h1.3c0.1,0,0.3,0,0.3-0.1c0.1-0.1,0.1-0.2,0.1-0.3 c0-0.1,0-0.3-0.1-0.3c-0.1-0.1-0.2-0.1-0.3-0.1h-1.3v-1.2h1.9c0.1,0,0.3,0,0.3-0.1c0.1-0.1,0.1-0.2,0.1-0.3c0-0.1,0-0.3-0.1-0.3 c-0.1-0.1-0.2-0.1-0.3-0.1h-1.9v-1.3h1.3c0.1,0,0.3,0,0.3-0.1c0.1-0.1,0.1-0.2,0.1-0.3c0-0.1,0-0.3-0.1-0.3 c-0.1-0.1-0.2-0.1-0.3-0.1h-1.3v-1.3h1.3c0.1,0,0.3,0,0.3-0.1c0.1-0.1,0.1-0.2,0.1-0.3c0-0.1,0-0.3-0.1-0.3 c-0.1-0.1-0.2-0.1-0.3-0.1h-1.3v-1.1h3.3V32z"></path> </g> </g> </svg>