<svg xmlns="http://www.w3.org/2000/svg" xmlns:xlink="http://www.w3.org/1999/xlink" id="Layer_1" x="0px" y="0px" viewBox="0 0 45 45" style="enable-background:new 0 0 45 45;" xml:space="preserve"> <style type="text/css"> .st0{fill:#F5F9FF;} .st1{fill:#0084FF;} </style> <circle class="st0" cx="22.5" cy="22.5" r="22.5"></circle> <path d="M28.9,12.8h2.7v2.7h-2.7V12.8z"></path> <path d="M28.9,16.8h2.7v2.7h-2.7V16.8z"></path> <path d="M24.8,12.8h2.7v2.7h-2.7V12.8z"></path> <path d="M24.8,16.8h2.7v2.7h-2.7V16.8z"></path> <path class="st1" d="M30.2,22.1v4H14.1V15.4h8.1v-1.3h-8.1c-0.4,0-0.7,0.1-0.9,0.4c-0.3,0.3-0.4,0.6-0.4,0.9v10.7 c0,0.4,0.1,0.7,0.4,0.9c0.3,0.3,0.6,0.4,0.9,0.4h5.4v2.7h-2.7v1.3h10.7v-1.3h-2.7v-2.7h5.4c0.4,0,0.7-0.1,0.9-0.4 c0.3-0.3,0.4-0.6,0.4-0.9v-4H30.2z M23.5,30.2h-2.7v-2.7h2.7V30.2z"></path> </svg>